<svg width="348" height="150" viewBox="0 0 348 150" fill="none" xmlns="http://www.w3.org/2000/svg">
<g clip-path="url(#clip0_799_2)">
<rect width="348" height="150" rx="20" fill="#002FAB"/>
<path d="M94.4434 20.3161C91.3474 22.1161 91.2034 26.4721 94.1194 28.5601C96.3514 30.1441 100.203 29.2441 101.247 26.9401C101.823 25.7161 101.787 23.2321 101.211 22.0801C100.563 20.7841 98.5474 19.5601 97.0354 19.5601C96.3154 19.5601 95.1634 19.9201 94.4434 20.3161Z" fill="#FFA767"/>
<path d="M81.268 22.0799C79.828 22.9439 79 24.4919 79 26.2919C79 28.0919 79.648 29.2439 81.124 30.2519C84.364 32.4479 88.72 30.1079 88.72 26.2199C88.72 22.4039 84.544 20.0639 81.268 22.0799Z" fill="#FFA767"/>
<path d="M106.899 22.4758C102.435 26.3998 107.187 33.2398 112.443 30.4318C116.907 28.0198 114.999 21.3598 109.851 21.3598C108.483 21.3598 107.943 21.5758 106.899 22.4758Z" fill="#FFA767"/>
<path d="M69.3152 27.0481C66.2192 28.7041 65.9672 33.3121 68.8472 35.3641C69.6392 35.9041 70.4672 36.1201 71.7992 36.1201C73.4912 36.1201 73.8152 35.9761 75.0752 34.7161C76.3352 33.4921 76.4792 33.1321 76.4792 31.5841C76.4792 29.3881 75.9032 28.2721 74.3552 27.2281C72.8792 26.2201 70.9712 26.1481 69.3152 27.0481Z" fill="#FFA767"/>
<path d="M119.535 27.1199C118.347 27.8759 117.195 29.7479 117.159 30.9719C117.159 31.4399 117.411 32.4119 117.699 33.1319C118.923 36.1559 122.811 37.1279 125.223 35.0039C128.751 31.9079 126.807 26.3999 122.199 26.3999C121.191 26.3999 120.183 26.6879 119.535 27.1199Z" fill="#FFA767"/>
<path d="M95.344 31.0799C94.048 31.5839 93.04 33.2039 93.04 34.7519C93.04 35.9039 93.292 36.4439 94.264 37.4159C96.136 39.2879 98.872 38.9999 100.24 36.7679C101.14 35.2919 101.14 34.0679 100.276 32.7359C99.088 30.9359 97.216 30.3239 95.344 31.0799Z" fill="white"/>
<path d="M84.9393 32.484C83.8233 32.952 82.9593 34.104 82.7433 35.436C82.1673 38.964 85.8753 41.196 88.9353 39.18C90.1593 38.388 90.7713 36.12 90.1593 34.644C89.3313 32.7 86.9193 31.692 84.9393 32.484Z" fill="white"/>
<path d="M104.703 33.384C103.479 34.608 103.407 34.824 103.587 36.336C103.803 38.244 104.559 39.216 106.359 39.756C108.267 40.332 110.175 39.468 110.895 37.668C111.363 36.624 111.399 36.084 111.075 35.04C110.535 33.24 109.563 32.484 107.655 32.268C106.143 32.088 105.927 32.16 104.703 33.384Z" fill="white"/>
<path d="M59.3798 34.8239C57.1118 35.8679 55.8878 38.2799 56.4638 40.5839C56.8238 42.0599 58.4078 43.6439 59.9918 44.0759C61.9718 44.5799 64.3838 43.7159 65.3558 42.0959C66.6518 39.9359 66.0398 36.5519 64.0958 35.2919C62.8358 34.4279 60.6398 34.2119 59.3798 34.8239Z" fill="#FFA767"/>
<path d="M130.228 35.004C127.888 36.48 127.168 38.82 128.248 41.304C129.112 43.176 130.48 44.04 132.64 44.04C137.284 44.04 139.264 38.82 135.88 35.58C134.476 34.212 131.884 33.96 130.228 35.004Z" fill="#FFA767"/>
<path d="M75.1479 36.66C73.8159 37.236 72.8799 38.82 72.8799 40.476C72.8799 42.168 74.8959 44.04 76.7319 44.04C77.4879 44.04 78.4959 43.788 78.9279 43.464C79.8999 42.816 80.7999 41.124 80.7999 40.044C80.7999 38.784 79.4319 36.948 78.2079 36.516C76.8039 36.012 76.5519 36.048 75.1479 36.66Z" fill="white"/>
<path d="M115.504 36.48C112.12 37.848 112.696 43.212 116.296 43.896C118.636 44.328 121.12 42.42 121.12 40.152C121.12 37.416 118.096 35.436 115.504 36.48Z" fill="white"/>
<path d="M95.7038 41.3039C92.8958 42.5279 93.8678 46.9199 96.9638 46.9199C100.132 46.9199 100.96 42.2039 97.9718 41.1599C97.3958 40.9799 96.8918 40.7999 96.8558 40.7999C96.8198 40.8359 96.3158 41.0519 95.7038 41.3039Z" fill="#67FF32"/>
<path d="M87.6393 42.3477C86.4153 42.9597 85.6593 44.3997 85.9833 45.5877C86.5593 47.9637 89.4033 48.7917 91.0593 47.0997C93.3633 44.8317 90.4833 40.8717 87.6393 42.3477Z" fill="#67FF32"/>
<path d="M103.191 42.7798C101.715 44.0038 101.607 45.8038 102.939 47.0998C104.775 48.9718 107.979 47.6038 107.907 44.9398C107.871 43.3558 107.007 42.3478 105.423 42.0238C104.559 41.8798 104.091 42.0238 103.191 42.7798Z" fill="#67FF32"/>
<path d="M66.9036 42.9597C65.6436 43.4637 64.5996 45.0837 64.5996 46.5957C64.5996 50.7357 70.4316 51.9237 72.0516 48.1077C73.4196 44.7957 70.2156 41.6277 66.9036 42.9597Z" fill="white"/>
<path d="M122.92 43.5721C120.616 45.6241 121.372 49.2961 124.288 50.1601C128.356 51.3841 131.164 46.2721 127.924 43.5361C126.376 42.2401 124.396 42.2761 122.92 43.5721Z" fill="white"/>
<path d="M51.8194 45.1561C49.6234 45.8401 48.3994 47.4961 48.3994 49.7281C48.3994 51.7441 49.2994 53.2921 50.9914 54.1561C52.6114 54.9841 53.3674 55.0201 55.1314 54.3001C58.1554 53.0761 59.1274 49.1881 57.0034 46.7761C56.3914 46.0561 55.3114 45.3361 54.5914 45.1201C53.0794 44.7241 53.2594 44.7241 51.8194 45.1561Z" fill="#FFA767"/>
<path d="M138.508 45.3C136.888 45.984 135.88 47.784 135.88 49.944C135.88 51.492 136.024 51.852 137.284 53.076C138.508 54.336 138.868 54.48 140.416 54.48C142.612 54.48 143.728 53.904 144.772 52.356C147.544 48.288 143.116 43.284 138.508 45.3Z" fill="#FFA767"/>
<path d="M79.5755 45.9121C78.3875 46.9201 78.1715 49.0801 79.1795 50.1601C80.5115 51.6361 83.2115 51.3121 84.0035 49.5841C84.9395 47.4601 84.0395 45.5881 81.8435 45.2641C80.8355 45.0841 80.3675 45.2281 79.5755 45.9121Z" fill="#67FF32"/>
<path d="M110.499 46.0201C109.563 46.9561 109.311 48.6121 109.959 49.8001C110.463 50.7721 112.263 51.2761 113.559 50.8081C116.511 49.8001 115.611 45.1201 112.479 45.1201C111.795 45.1201 111.039 45.4441 110.499 46.0201Z" fill="#67FF32"/>
<path d="M73.0951 50.9159C72.0871 51.7079 71.7991 53.5439 72.5191 54.8399C72.9511 55.6319 74.8231 56.3519 75.6871 56.0279C77.9911 55.1999 78.7471 52.2839 76.9831 50.9159C76.4431 50.4839 75.5791 50.1599 75.0391 50.1599C74.4991 50.1599 73.6351 50.4839 73.0951 50.9159Z" fill="#67FF32"/>
<path d="M117.052 50.5918C116.296 51.2038 115.684 52.8598 115.972 53.6518C116.8 55.9918 119.68 56.7478 121.084 54.9838C122.668 52.9678 121.48 50.1598 118.996 50.1598C118.276 50.1598 117.376 50.3758 117.052 50.5918Z" fill="#67FF32"/>
<path d="M60.0635 51.5637C57.7955 52.9317 57.5435 56.1717 59.5955 57.8637C62.6915 60.4917 67.2275 57.1077 65.6435 53.3637C65.1395 52.0677 63.4115 50.8797 62.0795 50.8797C61.5755 50.8797 60.6755 51.2037 60.0635 51.5637Z" fill="white"/>
<path d="M129.184 52.1038C127.168 54.1198 127.6 56.9638 130.12 58.2598C131.524 58.9798 132.496 58.9438 133.936 58.0798C137.284 55.9918 135.628 50.8798 131.632 50.8798C130.732 50.8798 130.084 51.2038 129.184 52.1038Z" fill="white"/>
<path d="M123.1 56.568C120.544 57.072 120.076 60.924 122.416 62.004C124.54 62.94 126.412 62.04 126.736 59.88C127.096 57.756 125.296 56.136 123.1 56.568Z" fill="#67FF32"/>
<path d="M68.0194 57.5397C65.6074 59.9517 68.7394 63.6957 71.7994 62.0397C72.7714 61.5357 73.2754 59.7357 72.8074 58.4397C72.1234 56.4597 69.5674 55.9557 68.0194 57.5397Z" fill="#67FF32"/>
<path d="M46.0594 57.5398C44.4034 58.3678 43.3594 60.1678 43.3594 62.1478C43.3594 66.1078 48.4354 68.4118 51.3514 65.7478C53.9434 63.4078 53.5114 59.2318 50.5234 57.7198C48.9034 56.8558 47.5354 56.8198 46.0594 57.5398Z" fill="#FFA767"/>
<path d="M143.439 57.4678C141.135 58.6198 140.235 62.1478 141.639 64.4518C144.159 68.5918 150.639 66.7198 150.639 61.8598C150.639 58.2598 146.679 55.8118 143.439 57.4678Z" fill="#FFA767"/>
<path d="M56.3192 61.2481C54.8792 61.9681 54.1592 63.1561 54.1592 64.8481C54.1592 65.7841 54.4832 66.3961 55.4192 67.3321C56.6072 68.5201 56.8232 68.5921 58.3352 68.4121C60.2432 68.1961 61.2152 67.4401 61.7552 65.6401C62.3312 63.7681 61.4672 61.8241 59.7752 61.1401C58.1552 60.4561 57.8672 60.4561 56.3192 61.2481Z" fill="white"/>
<path d="M134.188 60.96C132.892 61.5 131.848 63.444 132.064 64.884C132.352 66.684 133.18 67.728 134.8 68.196C136.024 68.592 136.456 68.556 137.5 68.052C139.948 66.9 140.524 63.516 138.616 61.716C137.644 60.816 135.412 60.42 134.188 60.96Z" fill="white"/>
<path d="M66.1834 64.0919C65.1394 64.2719 64.3114 65.2799 64.0234 66.5759C63.8794 67.4399 64.0234 67.9079 64.7794 68.8079C66.0034 70.2839 67.8034 70.3919 69.0994 69.0599C71.1874 66.9719 69.1714 63.5159 66.1834 64.0919Z" fill="#67FF32"/>
<path d="M125.619 64.2722C123.783 65.3162 123.423 67.6202 124.899 69.0602C126.015 70.2122 127.599 70.2122 128.895 69.0962C131.523 66.8282 128.607 62.5442 125.619 64.2722Z" fill="#67FF32"/>
<path d="M145.275 70.6082C142.611 71.9402 141.783 75.0002 143.367 77.5922C144.303 79.1042 145.491 79.6802 147.507 79.6802C149.451 79.6802 150.603 79.0682 151.611 77.5562C153.699 74.4602 151.215 69.9602 147.471 69.9602C146.931 69.9602 145.959 70.2482 145.275 70.6082Z" fill="#FFA767"/>
<path d="M44.0796 70.788C42.8196 71.436 41.5596 73.452 41.5596 74.928C41.5596 77.52 43.9716 80.04 46.4556 80.04C49.1196 80.04 51.3876 77.772 51.3876 75.18C51.3876 73.38 50.2716 71.364 48.9396 70.752C47.7156 70.176 45.2316 70.212 44.0796 70.788Z" fill="#FFA767"/>
<path d="M54.664 71.76C51.316 73.92 52.792 78.96 56.752 78.96C57.904 78.96 58.444 78.708 59.416 77.736C61.288 75.864 61 73.128 58.768 71.76C57.256 70.86 56.068 70.86 54.664 71.76Z" fill="white"/>
<path d="M134.584 72.264C132.712 74.136 133 76.872 135.232 78.24C136.744 79.14 137.824 79.14 139.3 78.24C142.684 76.152 141.244 71.04 137.248 71.04C136.096 71.04 135.556 71.292 134.584 72.264Z" fill="white"/>
<path d="M64.3473 72.5522C63.2673 73.0922 62.7273 74.7122 63.2313 76.0802C64.2393 79.0682 68.9193 78.2402 68.9193 75.0362C68.9193 72.8042 66.5433 71.5082 64.3473 72.5522Z" fill="#67FF32"/>
<path d="M125.872 72.9479C124.792 74.0999 124.828 75.8639 125.98 76.9799C128.212 79.2479 131.848 76.9079 130.768 73.9199C130.336 72.6239 129.508 72.1199 127.852 72.1199C127.06 72.1199 126.376 72.4079 125.872 72.9479Z" fill="#67FF32"/>
<path d="M65.1031 80.9038C62.4751 83.1358 65.2831 87.3478 68.3071 85.7278C70.2151 84.7198 70.6111 82.4158 69.0991 80.9398C67.9831 79.7878 66.3991 79.7878 65.1031 80.9038Z" fill="#67FF32"/>
<path d="M124.9 80.94C123.028 82.776 124.396 85.98 127.06 85.908C128.644 85.872 129.652 85.008 129.976 83.424C130.12 82.56 129.976 82.092 129.22 81.192C127.996 79.716 126.196 79.608 124.9 80.94Z" fill="#67FF32"/>
<path d="M56.1034 82.128C53.9434 83.496 53.6194 86.628 55.4554 88.356C56.6434 89.472 59.4514 89.58 60.5674 88.572C61.8274 87.42 62.2234 85.944 61.7554 84.324C61.0354 81.912 58.2274 80.832 56.1034 82.128Z" fill="white"/>
<path d="M134.079 81.9481C133.575 82.2001 132.855 83.0281 132.495 83.7841C131.883 85.0801 131.847 85.3321 132.315 86.6641C132.999 88.6801 134.943 89.6881 136.923 89.0761C138.759 88.5361 139.515 87.6001 139.731 85.6561C139.911 84.1441 139.839 83.9281 138.651 82.7401C137.283 81.3721 135.771 81.0841 134.079 81.9481Z" fill="white"/>
<path d="M144.375 83.2798C140.307 84.5038 139.695 90.3718 143.475 92.2798C145.887 93.5398 148.335 92.9278 149.847 90.7318C151.071 88.8958 150.963 86.5198 149.523 84.9358C148.911 84.2158 147.831 83.4958 147.111 83.2798C145.599 82.8838 145.779 82.8838 144.375 83.2798Z" fill="#FFA767"/>
<path d="M45.6279 84C41.4519 86.52 43.3599 93 48.2919 93C50.0919 93 51.2439 92.352 52.2519 90.876C55.1679 86.556 50.0559 81.264 45.6279 84Z" fill="#FFA767"/>
<path d="M68.236 88.2122C67.804 88.5722 67.372 89.4362 67.264 90.1562C66.688 93.7562 72.16 94.8362 73.06 91.3082C73.708 88.6082 70.36 86.4842 68.236 88.2122Z" fill="#67FF32"/>
<path d="M122.092 88.0319C120.616 89.1839 120.688 92.1719 122.2 92.9999C124.216 94.0799 126.88 92.6399 126.88 90.4799C126.88 88.2479 123.856 86.7359 122.092 88.0319Z" fill="#67FF32"/>
<path d="M60.0273 91.9561C56.7513 94.0441 58.4073 99.1201 62.4033 99.1201C64.1673 99.1201 66.0393 97.1761 66.0393 95.2681C66.0393 93.6481 65.3193 92.4961 63.8793 91.7401C62.4753 91.0201 61.3953 91.0561 60.0273 91.9561Z" fill="white"/>
<path d="M129.435 92.1361C127.383 93.8281 127.635 97.0681 129.903 98.4361C130.515 98.7961 131.415 99.1201 131.919 99.1201C133.251 99.1201 134.979 97.9321 135.483 96.6361C136.563 94.0801 134.691 91.2001 131.919 91.2001C130.947 91.2001 130.191 91.4881 129.435 92.1361Z" fill="white"/>
<path d="M118.239 93.9717C115.971 94.7997 115.287 97.7157 117.015 99.0837C119.067 100.704 121.839 99.4797 121.839 96.9237C121.839 95.5917 120.903 94.0797 120.075 94.0797C119.895 94.0797 119.535 94.0077 119.247 93.9357C118.995 93.8277 118.527 93.8637 118.239 93.9717Z" fill="#67FF32"/>
<path d="M72.9152 95.0158C71.3672 96.9958 72.5192 99.8398 74.8952 99.8398C75.6152 99.8398 76.4792 99.6958 76.8392 99.4798C77.6312 99.0478 78.3512 97.1758 78.0272 96.3118C77.1992 94.0078 74.2832 93.2518 72.9152 95.0158Z" fill="#67FF32"/>
<path d="M139.3 95.4478C137.176 96.1678 135.88 97.9678 135.88 100.236C135.88 101.676 136.06 102.216 136.996 103.26C140.056 106.752 145.6 104.808 145.6 100.272C145.6 96.8518 142.468 94.4398 139.3 95.4478Z" fill="#FFA767"/>
<path d="M50.9194 95.9877C49.6234 96.6357 48.3994 98.6517 48.3994 100.164C48.3994 102.828 50.6674 105.24 53.1874 105.24C56.0674 105.24 58.1194 103.116 58.1194 100.056C58.1194 98.5077 57.9754 98.1477 56.7154 96.9237C55.4914 95.6637 55.1314 95.5197 53.5834 95.5197C52.6114 95.5197 51.4234 95.7357 50.9194 95.9877Z" fill="#FFA767"/>
<path d="M80.2237 99.2639C77.4877 100.488 78.4957 104.88 81.5197 104.88C83.9317 104.88 85.3717 101.532 83.6797 99.8399C83.2837 99.4439 82.8157 99.1199 82.6357 99.1199C82.4557 99.1199 82.0957 99.0479 81.8077 98.9399C81.5557 98.8679 80.8357 99.0119 80.2237 99.2639Z" fill="#67FF32"/>
<path d="M111.183 99.1558C109.635 99.9478 109.131 102.432 110.247 103.764C111.975 105.888 115.431 104.592 115.431 101.856C115.431 100.992 115.179 100.236 114.747 99.8038C113.919 98.9758 112.191 98.6518 111.183 99.1558Z" fill="#67FF32"/>
<path d="M66.8679 100.02C63.1599 101.604 64.5279 107.4 68.5599 107.4C72.6639 107.4 73.9599 101.568 70.1799 99.9839C68.6679 99.3719 68.3439 99.3719 66.8679 100.02Z" fill="white"/>
<path d="M123.388 100.164C120.904 101.712 121.12 105.636 123.748 106.896C127.636 108.732 131.236 104.088 128.428 100.92C127.096 99.4441 125.044 99.1201 123.388 100.164Z" fill="white"/>
<path d="M87.0634 102.864C85.1554 104.484 86.0194 107.472 88.5754 107.976C90.1594 108.3 91.9594 106.716 91.9594 105.024C91.9594 102.396 89.0794 101.1 87.0634 102.864Z" fill="#67FF32"/>
<path d="M102.94 102.9C101.788 104.016 101.788 105.6 102.904 106.896C105.136 109.524 109.348 106.716 107.728 103.692C106.72 101.784 104.416 101.388 102.94 102.9Z" fill="#67FF32"/>
<path d="M95.0196 103.98C92.7516 106.212 95.0916 109.848 98.0796 108.768C99.3756 108.336 99.8796 107.508 99.8796 105.852C99.8796 103.332 96.8196 102.144 95.0196 103.98Z" fill="#67FF32"/>
<path d="M130.588 106.284C128.824 107.112 127.96 108.552 127.96 110.64C127.96 112.368 128.68 113.916 129.832 114.672C133.072 116.796 137.248 114.852 137.572 111.108C137.896 107.22 134.188 104.628 130.588 106.284Z" fill="#FFA767"/>
<path d="M58.8037 106.5C56.0317 108.012 55.6357 112.044 58.0837 114.384C59.8477 116.076 62.5477 116.076 64.5637 114.384C66.9037 112.404 66.6877 108.228 64.0957 106.644C62.7637 105.852 60.1717 105.744 58.8037 106.5Z" fill="#FFA767"/>
<path d="M74.9679 106.5C73.8519 107.112 72.8799 108.768 72.8799 109.992C72.8799 111.252 74.1039 112.98 75.3639 113.484C79.1799 115.068 82.5639 110.46 79.8279 107.4C78.6039 106.032 76.4799 105.636 74.9679 106.5Z" fill="white"/>
<path d="M115.071 106.536C114.099 107.184 113.199 108.876 113.199 109.956C113.199 111.288 114.567 113.088 115.899 113.52C118.527 114.384 121.119 112.44 121.119 109.596C121.119 107.832 119.175 105.96 117.267 105.96C116.511 105.96 115.503 106.212 115.071 106.536Z" fill="white"/>
<path d="M84.8314 110.46C83.2114 111.18 82.3834 113.16 82.9234 114.96C83.4634 116.76 84.4354 117.516 86.3434 117.732C87.8554 117.912 88.0714 117.84 89.2594 116.652C90.5914 115.32 90.8434 114.096 90.1594 112.296C89.4754 110.46 86.8474 109.56 84.8314 110.46Z" fill="white"/>
<path d="M105.64 110.568C104.704 111 104.236 111.576 103.84 112.692C103.372 114.06 103.408 114.348 103.948 115.5C105.568 118.92 110.68 118.272 111.256 114.564C111.544 112.872 110.932 111.504 109.528 110.64C108.052 109.74 107.26 109.74 105.64 110.568Z" fill="white"/>
<path d="M95.308 111.72C94.3 112.116 93.04 114.096 93.04 115.284C93.04 116.544 94.336 118.416 95.56 118.92C98.116 120 100.96 118.056 100.96 115.248C100.96 114.096 100.708 113.556 99.736 112.584C98.44 111.288 97.036 111.036 95.308 111.72Z" fill="white"/>
<path d="M68.7393 114.996C65.2473 118.056 67.1913 123.6 71.7273 123.6C74.8593 123.6 77.1273 121.044 76.6593 118.056C76.0833 114.204 71.6193 112.476 68.7393 114.996Z" fill="#FFA767"/>
<path d="M118.924 115.284C117.664 116.508 117.52 116.868 117.52 118.416C117.52 120.612 118.096 121.728 119.644 122.772C121.948 124.32 125.26 123.492 126.592 121.044C128.428 117.624 126.16 113.88 122.2 113.88C120.508 113.88 120.184 114.024 118.924 115.284Z" fill="#FFA767"/>
<path d="M81.5559 119.568C77.0919 121.98 78.9999 128.64 84.1479 128.64C85.5159 128.64 86.0559 128.424 87.0999 127.524C91.5639 123.6 86.8119 116.76 81.5559 119.568Z" fill="#FFA767"/>
<path d="M107.548 119.64C103.408 122.16 105.28 128.64 110.14 128.64C113.74 128.64 116.188 124.68 114.532 121.44C113.38 119.136 109.852 118.236 107.548 119.64Z" fill="#FFA767"/>
<path d="M95.8833 120.684C93.3993 121.476 92.3193 122.952 92.3193 125.508C92.3193 127.452 92.9313 128.604 94.4433 129.612C98.7633 132.528 104.019 127.056 101.139 122.664C100.059 121.008 97.7193 120.144 95.8833 120.684Z" fill="#FFA767"/>
<path d="M175.4 89V61H185.4C186.92 61 188.293 61.38 189.52 62.14C190.76 62.9 191.74 63.92 192.46 65.2C193.18 66.48 193.54 67.8867 193.54 69.42C193.54 70.9933 193.167 72.42 192.42 73.7C191.687 74.9667 190.7 75.98 189.46 76.74C188.22 77.4867 186.867 77.86 185.4 77.86H180.28V89H175.4ZM180.28 72.98H184.88C185.573 72.98 186.207 72.8067 186.78 72.46C187.353 72.1133 187.807 71.6467 188.14 71.06C188.487 70.4733 188.66 69.82 188.66 69.1C188.66 68.3667 188.487 67.7067 188.14 67.12C187.807 66.5333 187.353 66.0667 186.78 65.72C186.207 65.3733 185.573 65.2 184.88 65.2H180.28V72.98ZM210.91 69H215.79V89H210.91L210.69 86.52C210.143 87.4133 209.416 88.14 208.51 88.7C207.616 89.2467 206.556 89.52 205.33 89.52C203.85 89.52 202.463 89.24 201.17 88.68C199.876 88.12 198.736 87.3467 197.75 86.36C196.776 85.3733 196.01 84.2333 195.45 82.94C194.903 81.6467 194.63 80.26 194.63 78.78C194.63 77.3533 194.89 76.0133 195.41 74.76C195.943 73.5067 196.683 72.4067 197.63 71.46C198.576 70.5133 199.67 69.7733 200.91 69.24C202.15 68.7067 203.483 68.44 204.91 68.44C206.23 68.44 207.41 68.7333 208.45 69.32C209.503 69.9067 210.396 70.6533 211.13 71.56L210.91 69ZM205.21 84.82C206.25 84.82 207.17 84.56 207.97 84.04C208.77 83.52 209.396 82.82 209.85 81.94C210.303 81.0467 210.53 80.0667 210.53 79C210.53 77.92 210.303 76.94 209.85 76.06C209.396 75.1667 208.763 74.46 207.95 73.94C207.15 73.42 206.236 73.16 205.21 73.16C204.183 73.16 203.243 73.4267 202.39 73.96C201.55 74.48 200.876 75.18 200.37 76.06C199.876 76.94 199.63 77.92 199.63 79C199.63 80.08 199.883 81.06 200.39 81.94C200.896 82.82 201.57 83.52 202.41 84.04C203.263 84.56 204.196 84.82 205.21 84.82ZM238.095 76.36V89H233.215V77.64C233.215 76.8533 233.022 76.14 232.635 75.5C232.248 74.8467 231.728 74.3333 231.075 73.96C230.435 73.5733 229.722 73.38 228.935 73.38C228.148 73.38 227.428 73.5733 226.775 73.96C226.135 74.3333 225.622 74.8467 225.235 75.5C224.862 76.14 224.675 76.8533 224.675 77.64V89H219.795L219.775 69H224.655L224.675 70.78C225.355 70.06 226.168 69.4933 227.115 69.08C228.062 68.6533 229.082 68.44 230.175 68.44C231.628 68.44 232.955 68.8 234.155 69.52C235.355 70.2267 236.308 71.18 237.015 72.38C237.735 73.5667 238.095 74.8933 238.095 76.36ZM256.809 59H261.689V89H256.809V86.5C256.169 87.3933 255.362 88.12 254.389 88.68C253.416 89.24 252.289 89.52 251.009 89.52C249.556 89.52 248.196 89.2467 246.929 88.7C245.662 88.1533 244.542 87.4 243.569 86.44C242.609 85.4667 241.856 84.3467 241.309 83.08C240.762 81.8133 240.489 80.4533 240.489 79C240.489 77.5467 240.762 76.1867 241.309 74.92C241.856 73.6533 242.609 72.54 243.569 71.58C244.542 70.6067 245.662 69.8467 246.929 69.3C248.196 68.7533 249.556 68.48 251.009 68.48C252.289 68.48 253.416 68.76 254.389 69.32C255.362 69.8667 256.169 70.5933 256.809 71.5V59ZM251.069 84.82C252.109 84.82 253.029 84.56 253.829 84.04C254.629 83.52 255.256 82.82 255.709 81.94C256.162 81.0467 256.389 80.0667 256.389 79C256.389 77.92 256.162 76.94 255.709 76.06C255.256 75.1667 254.622 74.46 253.809 73.94C253.009 73.42 252.096 73.16 251.069 73.16C250.042 73.16 249.102 73.4267 248.249 73.96C247.409 74.48 246.736 75.18 246.229 76.06C245.736 76.94 245.489 77.92 245.489 79C245.489 80.08 245.742 81.06 246.249 81.94C246.756 82.82 247.429 83.52 248.269 84.04C249.122 84.56 250.056 84.82 251.069 84.82ZM274.981 89.52C273.141 89.52 271.461 89.0467 269.941 88.1C268.435 87.1533 267.228 85.8867 266.321 84.3C265.428 82.7 264.981 80.9333 264.981 79C264.981 77.5333 265.241 76.1667 265.761 74.9C266.281 73.62 266.995 72.5 267.901 71.54C268.821 70.5667 269.888 69.8067 271.101 69.26C272.315 68.7133 273.608 68.44 274.981 68.44C276.821 68.44 278.495 68.9133 280.001 69.86C281.521 70.8067 282.728 72.08 283.621 73.68C284.528 75.28 284.981 77.0533 284.981 79C284.981 80.4533 284.721 81.8133 284.201 83.08C283.681 84.3467 282.961 85.4667 282.041 86.44C281.135 87.4 280.075 88.1533 278.861 88.7C277.661 89.2467 276.368 89.52 274.981 89.52ZM274.981 84.64C275.955 84.64 276.828 84.38 277.601 83.86C278.375 83.34 278.981 82.6533 279.421 81.8C279.875 80.9467 280.101 80.0133 280.101 79C280.101 77.96 279.868 77.0133 279.401 76.16C278.948 75.2933 278.328 74.6067 277.541 74.1C276.768 73.58 275.915 73.32 274.981 73.32C274.021 73.32 273.155 73.58 272.381 74.1C271.608 74.62 270.995 75.3133 270.541 76.18C270.088 77.0467 269.861 77.9867 269.861 79C269.861 80.0533 270.095 81.0067 270.561 81.86C271.028 82.7133 271.648 83.3933 272.421 83.9C273.208 84.3933 274.061 84.64 274.981 84.64ZM288.115 89L288.095 69H292.975L292.995 70.78C293.675 70.06 294.489 69.4933 295.435 69.08C296.382 68.6533 297.402 68.44 298.495 68.44C299.229 68.44 299.962 68.5467 300.695 68.76L298.775 73.68C298.269 73.48 297.762 73.38 297.255 73.38C296.469 73.38 295.749 73.5733 295.095 73.96C294.455 74.3333 293.942 74.8467 293.555 75.5C293.182 76.14 292.995 76.8533 292.995 77.64V89H288.115ZM317.082 69H321.962V89H317.082L316.862 86.52C316.315 87.4133 315.588 88.14 314.682 88.7C313.788 89.2467 312.728 89.52 311.502 89.52C310.022 89.52 308.635 89.24 307.342 88.68C306.048 88.12 304.908 87.3467 303.922 86.36C302.948 85.3733 302.182 84.2333 301.622 82.94C301.075 81.6467 300.802 80.26 300.802 78.78C300.802 77.3533 301.062 76.0133 301.582 74.76C302.115 73.5067 302.855 72.4067 303.802 71.46C304.748 70.5133 305.842 69.7733 307.082 69.24C308.322 68.7067 309.655 68.44 311.082 68.44C312.402 68.44 313.582 68.7333 314.622 69.32C315.675 69.9067 316.568 70.6533 317.302 71.56L317.082 69ZM311.382 84.82C312.422 84.82 313.342 84.56 314.142 84.04C314.942 83.52 315.568 82.82 316.022 81.94C316.475 81.0467 316.702 80.0667 316.702 79C316.702 77.92 316.475 76.94 316.022 76.06C315.568 75.1667 314.935 74.46 314.122 73.94C313.322 73.42 312.408 73.16 311.382 73.16C310.355 73.16 309.415 73.4267 308.562 73.96C307.722 74.48 307.048 75.18 306.542 76.06C306.048 76.94 305.802 77.92 305.802 79C305.802 80.08 306.055 81.06 306.562 81.94C307.068 82.82 307.742 83.52 308.582 84.04C309.435 84.56 310.368 84.82 311.382 84.82Z" fill="white"/>
</g>
<defs>
<clipPath id="clip0_799_2">
<rect width="348" height="150" rx="20" fill="white"/>
</clipPath>
</defs>
</svg>
